<svg xmlns="http://www.w3.org/2000/svg" viewBox="0 0 256 256"><defs><style>.a{fill:#8796b1;}.b{fill:#fcc10a;}.c{fill:#1d1d1b;}</style></defs><title>icon</title><path class="a" d="M178.21,18.09q20.06,16.47,25.37,45.69H141.15Q137.7,52.1,127.6,52.09q-7.17,0-11.29,6.65t-4.12,19.65q0,13,4.12,19.66t11.29,6.64q10.1,0,13.55-11.69h62.43q-5.33,29.23-25.37,45.69t-49.28,16.47q-22.32,0-39.71-9.29a66.12,66.12,0,0,1-27.1-26.7q-9.7-17.4-9.7-40.78t9.7-40.77a66.12,66.12,0,0,1,27.1-26.7q17.39-9.3,39.71-9.3Q158.15,1.62,178.21,18.09Z"/><path class="b" d="M169.87,225.84c-3.76.74-90.05-1.85-90.53,1.75-10.35,5.09-9.24,21,1,25.31,8,2.89,29.7.52,61,1.24h28.42C188.38,253.46,188.79,226.9,169.87,225.84Z"/><path class="c" d="M103.33,246.6h5.76v2.63H99.9V232.05h3.43Z"/><path class="c" d="M119.44,232.05v17.18H116V232.05Z"/><path class="c" d="M139.09,232.05v2.73h-4.74v14.45h-3.43V234.78H126.2v-2.73Z"/><path class="c" d="M149.29,234.78v4.45h6.08v2.63h-6.08v4.62h6.81v2.75H145.86V232.05H156.1v2.73Z"/><path class="a" d="M90.28,172a6.09,6.09,0,0,1,2.28,3v-3.89H96v16.75H92.56V184a6.09,6.09,0,0,1-2.28,3,6.62,6.62,0,0,1-3.89,1.13,7.45,7.45,0,0,1-3.91-1,7.07,7.07,0,0,1-2.69-3,10.28,10.28,0,0,1-1-4.59,10.15,10.15,0,0,1,1-4.56,7.1,7.1,0,0,1,2.69-3,7.45,7.45,0,0,1,3.91-1A6.62,6.62,0,0,1,90.28,172Zm-6.52,3.39a6.65,6.65,0,0,0,0,8.11A4.79,4.79,0,0,0,87.45,185a5,5,0,0,0,2.62-.69,4.71,4.71,0,0,0,1.82-1.93,6.65,6.65,0,0,0,0-5.82,4.74,4.74,0,0,0-1.82-1.94,5,5,0,0,0-2.62-.69A4.83,4.83,0,0,0,83.76,175.43Z"/><path class="a" d="M110.8,172a5.92,5.92,0,0,1,2.25,3v-9.64h3.49v22.5h-3.49V184a5.92,5.92,0,0,1-2.25,3,6.64,6.64,0,0,1-3.89,1.13,7.42,7.42,0,0,1-3.91-1,7.07,7.07,0,0,1-2.69-3,10.15,10.15,0,0,1-1-4.59,10,10,0,0,1,1-4.56,7.1,7.1,0,0,1,2.69-3,7.42,7.42,0,0,1,3.91-1A6.64,6.64,0,0,1,110.8,172Zm-6.52,3.39a6.61,6.61,0,0,0,0,8.11A4.79,4.79,0,0,0,108,185a5,5,0,0,0,2.61-.69,4.8,4.8,0,0,0,1.83-1.93,6.65,6.65,0,0,0,0-5.82,4.83,4.83,0,0,0-1.83-1.94A5,5,0,0,0,108,174,4.83,4.83,0,0,0,104.28,175.43Z"/><path class="a" d="M146.4,172.74a7.51,7.51,0,0,1,1.78,5.38v9.76h-3.46v-9.4a4.85,4.85,0,0,0-1.1-3.39,3.87,3.87,0,0,0-3-1.2,4.18,4.18,0,0,0-3.23,1.3,5.36,5.36,0,0,0-1.2,3.78v8.91h-3.47v-9.4a4.85,4.85,0,0,0-1.09-3.39,3.88,3.88,0,0,0-3-1.2,4.18,4.18,0,0,0-3.24,1.3,5.36,5.36,0,0,0-1.2,3.78v8.91h-3.46V171.13h3.46v3.49a5.38,5.38,0,0,1,2.13-2.79,6.23,6.23,0,0,1,3.49-1,6.38,6.38,0,0,1,3.64,1,5.88,5.88,0,0,1,2.23,3,6.08,6.08,0,0,1,2.34-3,6.46,6.46,0,0,1,3.65-1.07A6.21,6.21,0,0,1,146.4,172.74Z"/><path class="a" d="M152.35,164.81a2.21,2.21,0,0,1,1.61-.58,2.25,2.25,0,0,1,1.62.58,1.88,1.88,0,0,1,.63,1.45,1.79,1.79,0,0,1-.63,1.43,2.32,2.32,0,0,1-1.62.55,2.28,2.28,0,0,1-1.61-.55,1.81,1.81,0,0,1-.61-1.43A1.9,1.9,0,0,1,152.35,164.81Zm3.34,6.32v16.75h-3.47V171.13Z"/><path class="a" d="M173.93,172.74a7.6,7.6,0,0,1,1.76,5.38v9.76h-3.47v-9.4a4.89,4.89,0,0,0-1.15-3.48,4.12,4.12,0,0,0-3.16-1.23,4.33,4.33,0,0,0-3.31,1.32,5.44,5.44,0,0,0-1.25,3.88v8.91h-3.47V171.13h3.47v3.68a5.55,5.55,0,0,1,2.25-2.92,6.51,6.51,0,0,1,3.65-1A6.11,6.11,0,0,1,173.93,172.74Z"/><path class="a" d="M88.09,213.23v3H86a5.73,5.73,0,0,1-4-1.29c-.93-.86-1.39-2.29-1.39-4.3v-8.21h-2.4V199.5h2.4v-4.17H84v4.17h4v2.94H84v8.27a2.88,2.88,0,0,0,.53,2,2.6,2.6,0,0,0,1.87.54Z"/><path class="a" d="M105.39,201.11a7.6,7.6,0,0,1,1.76,5.38v9.75h-3.47v-9.39a4.89,4.89,0,0,0-1.15-3.48,4.12,4.12,0,0,0-3.16-1.23,4.37,4.37,0,0,0-3.32,1.32,5.47,5.47,0,0,0-1.24,3.88v8.9H91.34V193.75h3.47v9.42a5.53,5.53,0,0,1,2.25-2.91,6.51,6.51,0,0,1,3.65-1A6.11,6.11,0,0,1,105.39,201.11Z"/><path class="a" d="M126.63,208.55H113.75a5.25,5.25,0,0,0,1.42,3.83,4.69,4.69,0,0,0,3.32,1.25,4.8,4.8,0,0,0,2.93-.88,3.64,3.64,0,0,0,1.47-2.34h3.71a7.18,7.18,0,0,1-1.4,3.13,7.29,7.29,0,0,1-2.76,2.14,9,9,0,0,1-3.8.78,8.72,8.72,0,0,1-4.3-1,7.34,7.34,0,0,1-2.94-3,10.38,10.38,0,0,1,0-9.14,7.34,7.34,0,0,1,2.94-3,9.49,9.49,0,0,1,8.6,0,7.06,7.06,0,0,1,2.83,2.8,8.69,8.69,0,0,1,.86,5.45Zm-3.93-4.33a4,4,0,0,0-1.71-1.64,5.3,5.3,0,0,0-2.35-.53,4.85,4.85,0,0,0-3.41,1.25,5.07,5.07,0,0,0-1.48,3.67h9.51A5.21,5.21,0,0,0,122.7,204.22Z"/><path class="a" d="M155.8,201.11a7.55,7.55,0,0,1,1.77,5.38v9.75h-3.46v-9.39a4.9,4.9,0,0,0-1.09-3.39,3.88,3.88,0,0,0-3-1.2,4.21,4.21,0,0,0-3.24,1.29,5.4,5.4,0,0,0-1.2,3.79v8.9H142.1v-9.39a4.85,4.85,0,0,0-1.09-3.39,3.87,3.87,0,0,0-3-1.2,4.21,4.21,0,0,0-3.24,1.29,5.4,5.4,0,0,0-1.2,3.79v8.9H130.1V199.5h3.46V203a5.34,5.34,0,0,1,2.13-2.79,6.24,6.24,0,0,1,3.5-1,6.37,6.37,0,0,1,3.63,1,5.8,5.8,0,0,1,2.23,3,6.1,6.1,0,0,1,2.34-2.94,6.49,6.49,0,0,1,3.65-1.07A6.23,6.23,0,0,1,155.8,201.11Z"/><path class="a" d="M177.06,208.55H164.17a5.26,5.26,0,0,0,1.43,3.83,4.67,4.67,0,0,0,3.31,1.25,4.78,4.78,0,0,0,2.93-.88,3.61,3.61,0,0,0,1.48-2.34H177a7.11,7.11,0,0,1-4.17,5.27,9,9,0,0,1-3.8.78,8.74,8.74,0,0,1-4.3-1,7.38,7.38,0,0,1-2.93-3,10.38,10.38,0,0,1,0-9.14,7.38,7.38,0,0,1,2.93-3,9.49,9.49,0,0,1,8.6,0,7.06,7.06,0,0,1,2.83,2.8,8,8,0,0,1,1,4A8.09,8.09,0,0,1,177.06,208.55Zm-3.94-4.33a3.9,3.9,0,0,0-1.7-1.64,5.34,5.34,0,0,0-2.36-.53,4.83,4.83,0,0,0-3.4,1.25,5.08,5.08,0,0,0-1.49,3.67h9.51A5.12,5.12,0,0,0,173.12,204.22Z"/></svg>